<?xml version="1.0" encoding="UTF-8" standalone="no"?>
<!-- Created with Inkscape (http://www.inkscape.org/) -->

<svg
   width="51.5mm"
   height="68.666672mm"
   viewBox="0 0 51.5 68.666672"
   version="1.1"
   id="svg1"
   xml:space="preserve"
   xmlns="http://www.w3.org/2000/svg"
   xmlns:svg="http://www.w3.org/2000/svg"><defs
     id="defs1" /><g
     id="layer1"
     transform="translate(-47.430555,-112.94444)"><g
       id="g6"
       transform="matrix(2.8611111,0,0,2.8611111,38.847223,112.94444)"
       style="stroke:none;stroke-width:0.999961;stroke-dasharray:none"><path
         fill="#494c4e"
         d="M 19,0 H 5 C 3.9,0 3,0.9 3,2 v 20 c 0,1.1 0.9,2 2,2 h 14 c 1.1,0 2,-0.9 2,-2 V 2 C 21,0.9 20.1,0 19,0 Z m 0,21.5 C 19,21.78 18.78,22 18.5,22 H 5.5 C 5.22,22 5,21.78 5,21.5 V 2.5 C 5,2.22 5.22,2 5.5,2 h 13 C 18.78,2 19,2.22 19,2.5 Z"
         id="path1"
         style="stroke:none;stroke-width:0.999961;stroke-dasharray:none" /><path
         fill="#494c4e"
         d="M 10,10 H 8 C 7.45,10 7,9.55 7,9 V 5 C 7,4.45 7.45,4 8,4 h 2 c 0.55,0 1,0.45 1,1 v 4 c 0,0.55 -0.45,1 -1,1 z M 16,6 H 14 C 13.45,6 13,5.55 13,5 13,4.45 13.45,4 14,4 h 2 c 0.55,0 1,0.45 1,1 0,0.55 -0.45,1 -1,1 z m 0,4 H 14 C 13.45,10 13,9.55 13,9 13,8.45 13.45,8 14,8 h 2 c 0.55,0 1,0.45 1,1 0,0.55 -0.45,1 -1,1 z"
         id="path2"
         style="stroke:none;stroke-width:0.999961;stroke-dasharray:none" /><path
         fill="#494c4e"
         d="M 15.97233,13.510923 H 7.9723304 c -0.55,0 -1,-0.45 -1,-1 0,-0.55 0.45,-1 1,-1 h 3.3058246 4.694175 c 0.55,0 1,0.45 1,1 0,0.55 -0.45,1 -1,1 z"
         id="path2-5"
         style="stroke:none;stroke-width:0.999961;stroke-dasharray:none" /></g><g
       style="fill:#00bc7d;fill-opacity:1;stroke:#40422c;stroke-width:2.00059;stroke-linecap:round;stroke-linejoin:round;stroke-dasharray:none;stroke-opacity:1"
       id="g7"
       transform="matrix(0.93679744,0,0,0.93679744,61.633426,152.84176)"><rect
         x="3"
         y="11"
         width="18"
         height="10"
         rx="2"
         id="rect1-3"
         style="fill:#00bc7d;fill-opacity:1;stroke:#40422c;stroke-width:2.00059;stroke-dasharray:none;stroke-opacity:1" /><circle
         cx="12"
         cy="5"
         r="2"
         id="circle1"
         style="fill:#00bc7d;fill-opacity:1;stroke:#40422c;stroke-width:2.00059;stroke-dasharray:none;stroke-opacity:1" /><path
         d="m 12,7 v 4"
         id="path1-2"
         style="fill:#00bc7d;fill-opacity:1;stroke:#40422c;stroke-width:2.00059;stroke-dasharray:none;stroke-opacity:1" /><line
         x1="8"
         y1="16"
         x2="8"
         y2="16"
         id="line1"
         style="fill:#00bc7d;fill-opacity:1;stroke:#40422c;stroke-width:2.00059;stroke-dasharray:none;stroke-opacity:1" /><line
         x1="16"
         y1="16"
         x2="16"
         y2="16"
         id="line2"
         style="fill:#00bc7d;fill-opacity:1;stroke:#40422c;stroke-width:2.00059;stroke-dasharray:none;stroke-opacity:1" /></g></g></svg>
